<?xml version="1.0" standalone="no"?><!DOCTYPE svg PUBLIC "-//W3C//DTD SVG 1.1//EN" "http://www.w3.org/Graphics/SVG/1.1/DTD/svg11.dtd"><svg t="1682965841132" class="icon" viewBox="0 0 1024 1024" version="1.1" xmlns="http://www.w3.org/2000/svg" p-id="2203" xmlns:xlink="http://www.w3.org/1999/xlink" width="200" height="200"><path d="M814.545455 46.545455H209.454545a93.090909 93.090909 0 0 0-93.090909 93.090909v744.727272a93.090909 93.090909 0 0 0 93.090909 93.090909h197.818182a34.909091 34.909091 0 0 0 34.909091-34.90909 34.909091 34.909091 0 0 0-34.909091-34.909091H209.454545a23.272727 23.272727 0 0 1-23.272727-23.272728V139.636364a23.272727 23.272727 0 0 1 23.272727-23.272728h605.09091a23.272727 23.272727 0 0 1 23.272727 23.272728v384a34.909091 34.909091 0 0 0 34.909091 34.909091 34.909091 34.909091 0 0 0 34.909091-34.909091V139.636364a93.090909 93.090909 0 0 0-93.090909-93.090909z" fill="#ffffff" p-id="2204"></path><path d="M663.272727 372.363636h-325.818182a34.909091 34.909091 0 0 1 0-69.818181h325.818182a34.909091 34.909091 0 0 1 0 69.818181zM523.636364 581.818182h-186.181819a34.909091 34.909091 0 0 1 0-69.818182h186.181819a34.909091 34.909091 0 0 1 0 69.818182zM710.283636 670.952727a93.090909 93.090909 0 1 1-93.090909 93.090909 93.090909 93.090909 0 0 1 93.090909-93.090909m0-69.818182a162.909091 162.909091 0 1 0 162.909091 162.909091 162.909091 162.909091 0 0 0-162.909091-162.909091z" fill="#ffffff" p-id="2205"></path><path d="M872.727273 977.454545a35.141818 35.141818 0 0 1-24.669091-10.24l-69.818182-69.818181a34.909091 34.909091 0 1 1 49.338182-49.338182l69.818182 69.818182a34.676364 34.676364 0 0 1 0 49.338181 35.141818 35.141818 0 0 1-24.669091 10.24z" fill="#ffffff" p-id="2206"></path></svg>