<?xml version="1.0" standalone="no"?><!DOCTYPE svg PUBLIC "-//W3C//DTD SVG 1.1//EN" "http://www.w3.org/Graphics/SVG/1.1/DTD/svg11.dtd"><svg t="1682966023542" class="icon" viewBox="0 0 1024 1024" version="1.1" xmlns="http://www.w3.org/2000/svg" p-id="3309" xmlns:xlink="http://www.w3.org/1999/xlink" width="200" height="200"><path d="M68 616m30 0l202 0q30 0 30 30l0 280q0 30-30 30l-202 0q-30 0-30-30l0-280q0-30 30-30Z" fill="#ffffff" p-id="3310"></path><path d="M613 330c16.569 0 30 13.431 30 30v566c0 16.569-13.431 30-30 30H411c-16.569 0-30-13.431-30-30V360c0-16.569 13.431-30 30-30h202z m-33 31H444c-16.569 0-30 13.431-30 30v504c0 16.569 13.431 30 30 30h136c16.569 0 30-13.431 30-30V391c0-16.569-13.431-30-30-30z" fill="#ffffff" p-id="3311"></path><path d="M694 68m30 0l202 0q30 0 30 30l0 828q0 30-30 30l-202 0q-30 0-30-30l0-828q0-30 30-30Z" fill="#ffffff" p-id="3312"></path></svg>