<?xml version="1.0" standalone="no"?><!DOCTYPE svg PUBLIC "-//W3C//DTD SVG 1.1//EN" "http://www.w3.org/Graphics/SVG/1.1/DTD/svg11.dtd"><svg t="1682965919047" class="icon" viewBox="0 0 1024 1024" version="1.1" xmlns="http://www.w3.org/2000/svg" p-id="2881" xmlns:xlink="http://www.w3.org/1999/xlink" width="200" height="200"><path d="M415.93 64.91c28.56-14.99 61.09-20.88 93.1-21.42 31.52-0.2 63.57 4.75 92.33 18.08 13.75 6.84 27.22 14.21 40.85 21.29 88.9 46.72 177.81 93.44 266.71 140.18 13.72 7.52 28.35 13.75 40.57 23.72 11.35 9.2 21.03 21.09 25.33 35.25 4.68 14.42 3.04 30.57-3.93 43.98-7.94 15.81-22.03 27.56-37.16 36.22 0.05 51.59-0.01 103.19 0.03 154.78-0.03 3.29 0.2 6.63-0.55 9.87-1.71 7.79-7.7 14.5-15.32 16.92-6.85 2.34-14.77 1.21-20.69-2.95-6.09-4.17-9.96-11.4-9.95-18.78-0.01-45.12 0.01-90.23-0.01-135.35-85.57 44.94-171.09 89.96-256.64 134.95-16.08 8.26-31.75 17.65-49.14 22.98-37.91 11.84-78.83 13.16-117.71 5.53-17.65-3.58-34.85-9.52-50.67-18.17-102.7-54.01-205.39-108.02-308.09-162.02-7.76-4.16-15.75-7.95-23.01-12.97-13.53-9.09-25.46-21.45-31.39-36.86-5.54-14-5.24-30.18 0.78-43.98 5.69-13.48 16.05-24.49 27.81-32.96 6.52-4.77 13.69-8.54 20.85-12.25 105.3-55.35 210.6-110.69 315.9-166.04m77.66 25.93c-18.46 1.79-36.95 5.8-53.65 14.09-105.55 55.46-211.08 110.94-316.63 166.41-6.85 3.64-13.96 6.97-19.93 12-4.21 3.52-8.3 7.73-9.89 13.11-1.31 5.02 1.55 9.79 4.69 13.45 6.88 7.89 16.46 12.55 25.58 17.3 98.52 51.81 197.02 103.62 295.54 155.42 12.33 6.27 24.22 13.67 37.56 17.69 25.48 7.97 52.71 9.79 79.16 6.65 18.08-2.28 36.17-6.8 52.21-15.67 103.36-54.36 206.72-108.72 310.08-163.07 10.13-5.39 21.14-10.25 28.5-19.43 3.11-3.74 5.47-9.01 3.27-13.78-4.03-8.95-12.69-14.62-20.97-19.23-107.25-56.41-214.53-112.75-321.79-169.15-9.59-5.25-19.99-8.87-30.58-11.45-20.61-4.95-42.06-6.29-63.15-4.34z" p-id="2882" fill="#ffffff"></path><path d="M496.56 187.76c20.43-2.69 42.11-0.42 60.44 9.49 41.01 21.58 82.04 43.12 123.04 64.72 11.3 6.05 21.19 16.16 24.01 29 3.4 13.61-2.35 28.3-12.68 37.42-6.26 5.84-14.14 9.37-21.61 13.36-37.58 19.76-75.16 39.52-112.74 59.29-8.53 4.68-17.92 7.63-27.5 9.19-16.92 2.53-34.58 1.65-50.82-3.98-7.14-2.42-13.63-6.3-20.31-9.73-37.78-19.87-75.57-39.74-113.36-59.61-9.07-4.71-17.33-11.66-21.93-20.93-4.61-8.88-5.41-19.66-1.97-29.07 3.86-11.27 13.16-19.85 23.48-25.31 41.05-21.55 82.06-43.16 123.11-64.72 8.94-4.79 18.8-7.76 28.84-9.12m3.03 46.69c-6.89 1.23-12.77 5.15-18.91 8.24-35.76 18.85-71.59 37.57-107.3 56.49 37.88 19.91 75.75 39.83 113.62 59.75 11.03 6.53 24.61 7.24 36.97 5 6.89-1.11 12.79-4.99 18.9-8.09 35.96-18.9 71.91-37.83 107.88-56.72-39.36-20.52-78.58-41.34-117.92-61.91-10.38-4.51-22.24-4.9-33.24-2.76zM185.33 461.58c6.04-1.99 12.86-1.35 18.45 1.67 77.14 40.56 154.28 81.09 231.43 121.64 18.9 10.44 40.45 15.12 61.83 16.83 29.91 1.95 60.94-0.65 88.52-13.15 14.99-7.6 29.77-15.61 44.68-23.37 64.69-34.01 129.38-68.04 194.08-102.03 5.08-2.74 11.17-3.41 16.76-2.02 9.83 2.31 17.44 11.71 17.43 21.85-0.01 91.99-0.01 183.98 0 275.98 0.46 23.06-6.34 46.16-19.01 65.42-4.12 5.79-7.96 12.34-14.47 15.74-65.61 36.66-131.2 73.34-196.8 110-8.71 4.75-17.15 10.04-26.31 13.92-26.37 11.45-55.29 16.25-83.92 16.45-34.5 0.56-69.78-4.94-100.77-20.68-71.46-39.87-142.86-79.86-214.31-119.76-5.23-2.62-8.64-7.52-12.01-12.1-13.11-18.29-20.71-40.49-21.46-62.99-0.34-5.97-0.16-11.96-0.2-17.94V492.02c0.05-4.69-0.33-9.45 0.79-14.05 1.81-7.62 7.83-14.03 15.29-16.39m30.42 60.66c-0.01 78.57 0.01 157.15-0.01 235.73-0.2 15.06 3.98 30.33 12.88 42.58 0.6 0.68 1.3 1.24 2.12 1.69 69.09 38.61 138.18 77.24 207.27 115.86 18.16 9.48 38.63 13.69 58.92 15.37 14.63 0.93 29.39 0.91 43.96-0.95 18.18-2.41 36.42-6.97 52.41-16.22 68.01-38.03 136.03-76.05 204.05-114.07 2.15-1.14 3.17-3.48 4.46-5.42 7.99-12.7 11.03-27.95 10.19-42.81V522.25c-67.43 35.48-134.87 70.95-202.33 106.38-35.89 17.85-77.01 22.13-116.57 19.43-22.53-1.71-44.99-6.4-65.83-15.28-8.93-3.79-17.35-8.65-25.96-13.08-61.86-32.47-123.66-65.06-185.56-97.46zM906.42 560.64c7.13-1.3 14.82 0.94 20.05 5.99 4.34 4.25 8.59 8.59 12.91 12.87 6.6 6.54 8.55 17.18 4.76 25.65-2.36 5.87-7.64 9.67-11.82 14.15-4.21 4.19-8.25 9.05-14.14 10.87-8.91 3.21-19.35 0.27-25.51-6.84-5-5.63-11.48-10.11-15.17-16.78-4.44-8.44-3-19.59 3.61-26.51 4.26-4.34 8.6-8.61 12.9-12.92 3.35-3.37 7.72-5.68 12.41-6.48z" p-id="2883" fill="#ffffff"></path><path d="M407.46 800.56c8.36-2.43 16.31 1.63 23.56 5.32 50.17 24.87 111.77 24.86 161.94 0.01 6.03-2.75 12.1-6.58 19.02-5.92 11.56 0.15 21.84 10.39 22.05 21.95 0.81 8.92-4.54 17.61-12.34 21.72-28.61 15.54-60.59 24.85-93.07 27.19-43.53 3.24-87.92-6.34-126.27-27.17-7.48-3.94-12.8-12.05-12.43-20.63-0.23-10.37 7.49-20.08 17.54-22.47z" p-id="2884" fill="#ffffff"></path></svg>